<svg width="387" height="44" viewBox="0 0 387 44" fill="none" xmlns="http://www.w3.org/2000/svg">
<path d="M45.08 2.2H25.4V3.4C30.38 3.4 30.92 4.18 30.92 8.38V21.34H14.36V8.38C14.36 4.18 14.9 3.4 19.88 3.4V2.2H0.2V3.4C5.18 3.4 5.72 4.18 5.72 8.38V36.82C5.72 41.02 5.18 41.8 0.2 41.8V43H19.88V41.8C14.9 41.8 14.36 41.02 14.36 36.82V22.54H30.92V36.82C30.92 41.02 30.38 41.8 25.4 41.8V43H45.08V41.8C40.1 41.8 39.56 41.02 39.56 36.82V8.38C39.56 4.18 40.1 3.4 45.08 3.4V2.2ZM54.5052 10.84C57.3852 10.84 59.3652 8.86 59.3652 5.92C59.3652 3.04 57.3852 1.06 54.5052 1.06C51.5652 1.06 49.5852 3.04 49.5852 5.92C49.5852 8.86 51.5652 10.84 54.5052 10.84ZM62.3652 43V41.8C59.2452 41.8 58.7652 41.32 58.7652 38.62V14.2H58.1652L47.1852 17.26V18.1C50.8452 17.68 50.9652 18.04 50.9652 21.4V38.62C50.9652 41.32 50.4252 41.8 47.1852 41.8V43H62.3652ZM93.2244 38.44V0.399998H92.6244L80.1444 3.7V4.54C84.4644 4.12 85.4244 4.3 85.4244 8.44V15.34C83.7444 14.38 81.7044 13.84 79.1844 13.84C70.5444 13.84 65.0844 19.84 65.0844 29.5C65.0844 38.2 69.4044 43.84 76.1844 43.84C80.3244 43.84 83.1444 41.86 85.4244 37.36L85.9044 43H96.7044V41.8C93.8244 41.8 93.2244 41.02 93.2244 38.44ZM80.7444 38.74C76.1244 38.74 73.5444 34.36 73.5444 26.68C73.5444 19.42 75.7044 15.04 79.7244 15.04C83.4444 15.04 85.4244 17.38 85.4244 22.06V36.58C84.1644 37.96 82.4844 38.74 80.7444 38.74ZM127.267 38.44V0.399998H126.667L114.187 3.7V4.54C118.507 4.12 119.467 4.3 119.467 8.44V15.34C117.787 14.38 115.747 13.84 113.227 13.84C104.587 13.84 99.1273 19.84 99.1273 29.5C99.1273 38.2 103.447 43.84 110.227 43.84C114.367 43.84 117.187 41.86 119.467 37.36L119.947 43H130.747V41.8C127.867 41.8 127.267 41.02 127.267 38.44ZM114.787 38.74C110.167 38.74 107.587 34.36 107.587 26.68C107.587 19.42 109.747 15.04 113.767 15.04C117.487 15.04 119.467 17.38 119.467 22.06V36.58C118.207 37.96 116.527 38.74 114.787 38.74ZM158.01 25.12C158.25 17.86 154.23 13.84 146.79 13.84C138.45 13.84 133.17 19.66 133.17 29.44C133.17 38.08 138.33 43.84 146.49 43.84C152.79 43.84 156.75 40.12 157.83 33.1L156.99 32.8C155.61 35.38 153.03 36.64 149.43 36.64C143.37 36.64 139.59 32.74 139.59 26.26V25.12H158.01ZM146.01 15.04C149.07 15.04 150.51 17.8 150.51 23.92H139.71C140.13 18.34 142.29 15.04 146.01 15.04ZM189.293 23.32C189.293 17.02 186.593 13.84 181.253 13.84C176.993 13.84 173.573 16.72 172.313 20.32V14.2H171.713L161.033 17.26V18.1C164.393 17.68 164.513 18.04 164.513 21.4V38.62C164.513 41.32 163.973 41.8 161.033 41.8V43H175.613V41.8C172.793 41.8 172.313 41.32 172.313 38.62V21.04C173.633 19.66 175.193 18.94 176.813 18.94C180.053 18.94 181.493 20.8 181.493 25V38.44C181.493 41.32 181.073 41.8 178.613 41.8V43H192.413V41.8C189.713 41.8 189.293 41.38 189.293 38.44V23.32ZM232.503 21.94C238.323 20.44 241.563 16.96 241.563 12.16C241.563 5.62 237.243 2.2 228.243 2.2H205.923V3.4C210.903 3.4 211.443 4.18 211.443 8.38V36.82C211.443 41.02 210.903 41.8 205.923 41.8V43H225.543V41.8C221.043 41.8 220.083 41.44 220.083 37.9V22.72H223.443L237.183 43H248.043V41.8C247.683 41.8 247.263 41.44 246.243 40.12L232.503 21.94ZM225.483 3.4C230.943 3.4 232.803 6.34 232.803 12.46C232.803 18.22 230.223 21.52 225.363 21.52H220.083V3.4H225.483ZM273.792 25.12C274.032 17.86 270.012 13.84 262.572 13.84C254.232 13.84 248.952 19.66 248.952 29.44C248.952 38.08 254.112 43.84 262.272 43.84C268.572 43.84 272.532 40.12 273.612 33.1L272.772 32.8C271.392 35.38 268.812 36.64 265.212 36.64C259.152 36.64 255.372 32.74 255.372 26.26V25.12H273.792ZM261.792 15.04C264.852 15.04 266.292 17.8 266.292 23.92H255.492C255.912 18.34 258.072 15.04 261.792 15.04ZM288.274 43.84C295.534 43.84 299.734 40.36 299.734 34.78C299.734 30.58 297.754 28.06 293.914 26.32L288.214 23.8C285.874 22.72 284.674 21.34 284.674 19.18C284.674 16.72 286.594 15.04 289.774 15.04C294.094 15.04 296.914 18.64 298.834 22.96H299.734L299.434 15.82C296.734 14.56 293.134 13.84 289.474 13.84C282.214 13.84 278.014 17.32 278.014 22.9C278.014 27.1 279.994 29.62 283.834 31.36L289.534 33.88C291.874 34.96 293.074 36.34 293.074 38.5C293.074 40.96 291.154 42.64 287.974 42.64C283.654 42.64 280.834 39.04 278.914 33.7H278.014L278.314 41.86C281.014 43.12 284.614 43.84 288.274 43.84ZM319.093 43.84C328.033 43.84 334.273 37.96 334.273 28.84C334.273 19.72 328.033 13.84 319.093 13.84C310.153 13.84 303.913 19.72 303.913 28.84C303.913 37.96 310.153 43.84 319.093 43.84ZM319.333 42.64C314.953 42.64 313.273 35.02 313.273 28C313.273 18.04 315.853 15.04 318.853 15.04C323.233 15.04 324.913 22.72 324.913 29.74C324.913 39.64 322.333 42.64 319.333 42.64ZM356.723 13.84C353.003 13.84 350.363 17.98 348.563 24.52V14.2H347.963L337.283 17.26V18.1C340.583 17.68 340.763 18.1 340.763 21.4V38.62C340.763 41.38 340.343 41.8 337.283 41.8V43H353.063V41.8C349.583 41.8 348.563 41.5 348.563 38.62V26.8C349.823 22.48 350.963 19.9 352.463 18.04C354.323 19.78 354.503 23.62 357.503 23.62C359.903 23.62 361.643 21.82 361.643 18.82C361.643 15.7 359.543 13.84 356.723 13.84ZM385.849 36.46C384.649 37.96 383.149 39.28 380.749 39.28C377.689 39.28 376.189 36.94 376.189 34.12V15.76H384.829V14.56H376.189V5.32H374.989C374.149 10.9 370.609 14.2 363.109 14.56V15.76H368.389V34.9C368.389 40.66 371.809 43.6 376.789 43.6C381.229 43.6 384.049 41.44 386.629 37L385.849 36.46Z" fill="#1D3D34"/>
</svg>
