<svg width="30" height="30" viewBox="0 0 30 30" fill="none" xmlns="http://www.w3.org/2000/svg">
<path d="M22.6733 15.0632C22.6627 15.4731 22.5855 15.8616 22.5962 16.2783C22.6033 16.5555 22.6104 16.8328 22.6174 17.11C22.639 17.953 22.6605 18.796 22.6821 19.639C22.7095 20.7112 22.7369 21.7833 22.7643 22.8555C22.7778 23.3854 22.7914 23.9153 22.8049 24.4453C22.819 24.9991 22.8003 25.3642 22.4732 25.8051C22.4171 25.8806 22.4999 25.9606 22.3854 26.0161C22.2836 26.0656 22.2302 26.2131 22.1208 26.2409C21.9287 26.2898 21.6741 26.2554 21.4755 26.2605C21.0104 26.2724 20.4721 26.2063 20.2418 25.7116C20.1292 25.4695 20.0222 25.2041 20.0055 24.9283C19.9959 24.7684 19.9672 24.6065 19.9273 24.4512C19.8781 24.2599 19.9374 23.9642 19.8446 23.8023C19.5957 23.3681 19.7259 22.4495 19.7129 21.9384C19.6733 20.3915 19.6338 18.8447 19.5943 17.2978C19.5798 16.7299 19.6741 16.1913 19.66 15.6377C19.6532 15.3707 19.6463 15.1037 19.6395 14.8367C19.6315 14.5215 19.4033 14.5016 19.2261 14.2914C19.0312 14.0603 18.8109 13.764 18.6972 13.4634C18.6428 13.3194 18.552 13.2295 18.5012 13.0815C18.4579 12.9549 18.4692 12.8106 18.3953 12.6972C18.2169 12.4235 18.1076 12.0792 18.005 11.7674C17.9468 11.5904 17.8282 11.3162 17.8151 11.1519C17.7472 10.3029 17.7168 9.42384 17.6947 8.55677C17.6742 7.75479 17.6012 6.7107 18.1446 6.06072C18.2964 5.87904 18.483 5.5717 18.544 5.35336C18.6122 5.10979 18.8514 4.91076 18.9602 4.71007C19.0338 4.5741 19.5217 4.36404 19.6842 4.35989C19.9114 4.35408 20.061 4.12914 20.2849 4.12341C20.6636 4.11374 21.05 4.04812 21.3962 4.23322C21.6083 4.34664 21.8655 4.35272 22.0554 4.52041C22.1722 4.6235 22.3555 4.65287 22.488 4.75812C22.599 4.84622 22.7095 4.93789 22.8222 5.02291C23.3204 5.39869 23.5442 5.98606 23.9558 6.47423C24.2675 6.84396 24.5057 7.53716 24.6052 8.02392C24.7152 8.56237 24.952 9.01957 24.9665 9.58711C24.9791 10.0802 24.9917 10.5733 25.0043 11.0664C25.0154 11.5007 24.9473 11.8651 24.8699 12.2707C24.8334 12.4619 24.7236 12.736 24.643 12.9122C24.5615 13.0901 24.3765 13.2182 24.3067 13.3907C24.2199 13.6054 24.0965 13.7741 23.9853 13.9794C23.8835 14.1673 23.5471 14.2883 23.4814 14.4775C23.4037 14.7011 23.2607 14.9712 23.0526 15.0965C22.8619 15.2114 22.7067 15.3206 22.5765 15.5079" stroke="#1D3D34" stroke-linecap="round"/>
<path d="M7.98771 14.2795C7.82758 17.6395 7.59924 21.0143 7.43982 24.3592C7.42584 24.6525 7.40066 25.4017 7.66511 25.6121C8.00259 25.8805 8.22909 25.9091 8.64749 25.9291C8.96934 25.9444 9.26635 25.952 9.56006 25.9013C9.82934 25.8547 10.0383 25.0732 10.049 24.8476C10.0586 24.6477 10.0284 24.3946 10.1464 24.2218C10.3186 23.9695 10.2468 23.5298 10.2615 23.2216C10.2806 22.8222 10.2996 22.4228 10.3186 22.0234C10.3603 21.1487 10.5341 20.3343 10.5755 19.4651C10.598 18.9946 10.6204 18.5241 10.6428 18.0536C10.6573 17.7491 10.6718 17.4446 10.6864 17.1401C10.7012 16.8289 10.849 16.5608 10.8642 16.2404C10.8864 15.775 10.8532 15.2602 10.9365 14.8028C10.9887 14.5162 11.65 14.3227 11.8744 14.1646C12.1875 13.944 12.4204 13.6945 12.686 13.4227C12.834 13.2713 12.8865 13.0469 13.0484 12.8996C13.2043 12.7578 13.3959 12.7156 13.4875 12.5002C13.6431 12.1342 13.8394 11.8833 13.8583 11.4859C13.8756 11.1234 13.9606 10.7558 13.9772 10.4071C13.9968 9.99632 14.2128 9.71304 14.2321 9.30848C14.2502 8.92888 14.3347 8.57252 14.3533 8.18097C14.376 7.70543 14.4419 6.99502 14.1977 6.56744C14.0476 6.3045 14.0689 5.65023 14.0833 5.34989C14.0977 5.04748 13.9702 4.45286 13.5878 4.4144C13.1259 4.36793 12.8863 4.51674 12.6083 4.82553C12.3856 5.07282 12.3803 5.55954 12.3069 5.87691C12.2207 6.24951 12.2046 6.63421 12.118 7.0087C11.9232 7.85058 11.9627 8.77159 11.9214 9.63741C11.9085 9.9083 11.9809 10.3731 11.8599 10.6139C11.699 10.9342 11.2909 10.9245 10.9833 10.9099C10.0708 10.8664 10.3934 9.1241 10.4238 8.48529C10.4652 7.61841 10.4381 6.77011 10.4794 5.90239C10.4988 5.49713 10.4118 5.02349 10.2276 4.65578C10.0654 4.33194 9.1398 4.2692 9.11728 4.74171C9.10134 5.07604 8.94897 5.44065 8.93119 5.81359C8.91481 6.15723 8.69949 6.4263 8.68419 6.74748C8.66277 7.19674 8.50833 7.60474 8.48704 8.05149C8.46723 8.46709 8.44742 8.88268 8.42762 9.29828C8.41172 9.63192 8.49304 10.1407 8.2271 10.3582C8.01304 10.5333 7.50417 10.552 7.24041 10.4463C7.02574 10.3603 7.10765 9.98731 7.01953 9.80907C6.92556 9.61901 6.77188 9.40436 6.74912 9.18826C6.70086 8.72998 6.58303 8.34561 6.60597 7.86427C6.65156 6.90786 6.75386 5.87202 6.48895 4.96919C6.41802 4.72743 6.54836 4.51492 6.40188 4.27831C6.30094 4.11526 5.99915 4.01457 5.80914 4.04742C5.51149 4.09888 5.40396 4.75946 5.39395 4.96954C5.35722 5.74008 5.056 6.39519 5.01928 7.16572C4.98054 7.97862 4.80908 8.74359 4.77003 9.56302C4.73226 10.3555 4.75105 11.3065 5.05669 12.0459C5.13878 12.2445 5.09949 12.4289 5.19401 12.6266C5.3028 12.8541 5.50419 12.9754 5.60999 13.183C5.64102 13.2439 6.02414 13.6943 6.091 13.7126C6.29754 13.7689 6.4604 13.7916 6.65132 13.9156C6.93339 14.0988 7.2249 14.3385 7.50415 14.5117C7.92232 14.771 7.88105 15.1013 7.85934 15.5568" stroke="#1D3D34" stroke-linecap="round"/>
</svg>
