<svg width="14" height="16" viewBox="0 0 14 16" fill="none" xmlns="http://www.w3.org/2000/svg">
<path d="M1.99219 3.979C3.07961 4.42989 3.78395 5.50677 4.75021 6.15095C5.30927 6.52365 5.89109 6.95086 6.41365 7.37482C6.91095 7.77829 7.35382 8.21796 7.9047 8.5556C8.37851 8.846 8.89569 9.19046 9.30095 9.58124C9.59449 9.8643 9.93768 10.0801 10.2576 10.3225C10.4747 10.4869 10.6448 10.7221 10.8954 10.8224C11.1043 10.9059 11.3386 11.2871 11.5505 11.4257C11.7789 11.575 12.0468 11.8256 12.3089 11.8911" stroke="#1D3D34" stroke-width="2" stroke-linecap="round"/>
<path d="M2.48633 12.4634C3.08188 11.4479 4.24508 10.8977 5.01551 10.0288C5.46126 9.52603 5.96413 9.00819 6.45565 8.54862C6.92342 8.11126 7.4196 7.73277 7.8295 7.23331C8.18205 6.80373 8.59408 6.3386 9.03669 5.99067C9.35728 5.73866 9.61801 5.42826 9.90194 5.1445C10.0945 4.95205 10.3508 4.8157 10.4845 4.58117C10.5958 4.38569 11.0055 4.20587 11.1718 4.01494C11.351 3.80912 11.6359 3.57807 11.7367 3.32736" stroke="#1D3D34" stroke-width="2" stroke-linecap="round"/>
<path d="M7.20703 1.5C7.52762 2.6327 7.11955 3.85305 7.21337 5.01056C7.26765 5.68026 7.29329 6.40163 7.28472 7.07448C7.27657 7.71482 7.20627 8.3349 7.28299 8.97645C7.34898 9.52824 7.39946 10.1476 7.34418 10.7078C7.30414 11.1137 7.34768 11.5167 7.35593 11.918C7.36152 12.1902 7.28249 12.4696 7.35925 12.7284C7.42324 12.9441 7.26942 13.3642 7.29213 13.6164C7.3166 13.8882 7.28618 14.2537 7.39732 14.5" stroke="#1D3D34" stroke-width="2" stroke-linecap="round"/>
</svg>
