<svg width="30" height="30" viewBox="0 0 30 30" fill="none" xmlns="http://www.w3.org/2000/svg">
<path d="M10.7273 13.1332C12.252 13.1332 13.7575 13.0733 15.2913 13.0733C16.1674 13.0733 17.0256 13.0134 17.9208 13.0134C18.0468 13.0134 18.5512 13.0902 18.5824 12.9202C18.6196 12.7177 18.5858 12.4738 18.5858 12.2679C18.5858 12.0687 18.4725 11.2016 18.6462 11.0832C18.7427 11.0175 18.7671 10.4952 18.7671 10.3777C18.7671 10.2373 18.8109 10.0972 18.8309 9.95842C18.8478 9.84144 18.9772 9.8175 19.0224 9.7055C19.0595 9.61353 19.3636 9.38307 19.4589 9.35608C19.6991 9.2881 19.7877 9.0599 20.0668 9.0599C20.2739 9.0599 20.481 9.0599 20.6881 9.0599C21.001 9.0599 21.1107 9.266 21.3799 9.37272C21.5627 9.44518 21.6887 9.73198 21.8232 9.86524C21.9221 9.96325 22.069 10.377 22.1221 10.3478C22.4599 10.1618 22.7245 10.1381 23.1195 10.1381C23.5079 10.1381 24.1198 10.3664 24.2681 10.7704C24.3047 10.8702 24.4257 10.9159 24.4461 11.0067C24.4746 11.1342 24.4562 11.2532 24.4964 11.3827C24.5791 11.6489 24.6912 11.8213 24.6912 12.1149C24.6912 12.3565 24.5762 13.1931 24.8423 13.1931C25.2012 13.1931 25.6454 13.4132 25.9909 13.4893C26.3792 13.5748 26.9649 14.0705 26.9883 14.5109C27.0265 15.2291 27.0139 16.3499 26.2629 16.6807C25.8881 16.8457 25.6539 16.907 25.2353 16.907C25.0539 16.907 24.8726 16.907 24.6912 16.907C24.4517 16.907 24.6293 17.3169 24.5401 17.476C24.4641 17.6116 24.4662 17.9471 24.4494 18.105C24.4276 18.31 24.3285 18.4326 24.3285 18.6574C24.3285 18.8783 24.3038 19.0566 24.2647 19.2697C24.2272 19.4742 23.7355 19.7557 23.5695 19.7856C23.2689 19.8397 22.7213 20.0356 22.4243 19.8721C22.3293 19.8197 21.9191 19.5898 21.9105 19.6624C21.89 19.8354 21.7284 20.0424 21.5948 20.1416C21.2898 20.3684 20.9604 20.6466 20.6108 20.8005C20.3111 20.9325 19.8815 20.8604 19.553 20.8604C19.1303 20.8604 18.8257 20.2358 18.6798 19.9054C18.5414 19.5919 18.6462 19.0448 18.6462 18.704C18.6462 18.2248 18.6462 17.7456 18.6462 17.2664C18.6462 17.1394 18.7129 16.7975 18.5253 16.7872C18.3452 16.7772 18.1617 16.7872 17.9813 16.7872C16.3995 16.7872 14.8177 16.7872 13.236 16.7872C12.5005 16.7872 11.765 16.7872 11.0295 16.7872C10.8043 16.7872 10.7273 16.7527 10.7273 16.9968C10.7273 17.2103 10.6668 17.391 10.6668 17.5992C10.6668 18.0429 10.6668 18.4866 10.6668 18.9303C10.6668 19.0993 10.4855 19.1978 10.4855 19.3929C10.4855 19.5553 10.425 19.7254 10.425 19.902C10.425 20.3129 10.0298 20.831 9.60897 20.9237C9.26618 20.9992 8.79141 21.0444 8.44363 20.9337C8.27272 20.8792 8.28866 20.8067 8.17496 20.6941C8.06454 20.5846 7.89275 20.5273 7.7686 20.4145C7.63397 20.2922 7.43984 19.9938 7.4059 19.8088C7.27933 19.119 6.94249 19.7223 6.4958 19.7223C6.2782 19.7223 6.07943 19.7523 5.8913 19.6325C5.66931 19.4911 5.49376 19.3111 5.2868 19.1499C5.08087 18.9896 4.74275 18.4118 4.74275 18.1782C4.74275 17.8014 4.6823 17.392 4.6823 16.9968C4.6823 16.5675 4.08061 16.7273 3.74532 16.7273C3.17573 16.7273 2.93175 16.6183 2.55312 16.2015C2.31963 15.9444 2.0225 15.3709 2.0225 15.0201C2.0225 14.6055 1.90582 14.0449 2.20385 13.7322C2.50494 13.4163 2.82609 13.0916 3.30538 13.0733C3.48709 13.0664 3.76536 13.1321 3.92667 13.0433C4.11762 12.9382 4.38454 13.0677 4.58826 13.0101C4.60547 13.0052 4.73194 11.9088 4.75618 11.8154C4.85581 11.4314 4.89919 11.0682 5.10545 10.7105C5.27809 10.4111 5.80463 10.0183 6.16332 10.0183C6.34958 10.0183 6.48216 9.95842 6.67715 9.95842C6.79295 9.95842 6.89641 9.95885 7.00962 9.98837C7.10587 10.0135 7.2102 10.134 7.28164 10.1381C7.67423 10.161 7.73232 9.31016 8.09436 9.1797C8.47411 9.04287 8.80638 9 9.21604 9C9.71531 9 10.1187 9.23551 10.4553 9.56906C10.7994 9.9101 10.6119 10.435 10.8012 10.8569C10.9348 11.1548 10.8482 11.6429 10.8482 11.9684C10.8482 12.4366 10.8482 12.9047 10.8482 13.3728" stroke="#1D3D34" stroke-linecap="round"/>
</svg>
