<svg width="30" height="30" viewBox="0 0 30 30" fill="none" xmlns="http://www.w3.org/2000/svg">
<path d="M2 16.4642C2.31114 16.3767 2.58932 16.2676 2.88686 16.1527C3.06091 16.0854 3.26212 16.0479 3.42331 15.9558C3.62347 15.8415 3.82219 15.7971 4.03979 15.7266C4.20519 15.6729 4.44816 15.5856 4.61733 15.5686C4.74786 15.5556 4.87498 15.4955 5.00669 15.4908C5.15819 15.4854 5.25768 15.3991 5.40686 15.3761C5.54684 15.3546 5.58207 15.3258 5.58207 15.4713C5.58207 15.6267 5.6262 15.745 5.69022 15.8801C5.72241 15.9481 5.77674 16.0767 5.77674 16.1527C5.77674 16.3006 5.86319 16.3543 5.91085 16.4836C5.95431 16.6016 6.00594 16.7127 6.04929 16.8319C6.08672 16.9348 6.17903 16.9957 6.21369 17.0958C6.28308 17.2963 6.46742 17.6014 6.63332 17.7317C6.74451 17.8191 6.84528 18.021 6.9275 18.1406C7.02118 18.2768 7.15073 18.4172 7.2736 18.5277C7.35512 18.6011 7.47217 18.6965 7.56778 18.7527C7.6499 18.801 7.71897 18.9278 7.80355 18.956C8.03479 19.0331 8.16177 19.2352 8.36379 19.3454C8.63277 19.4921 8.87491 19.675 9.1425 19.8299C9.36568 19.9591 9.62601 20.0609 9.82603 20.2409C9.97182 20.3721 10.1887 20.406 10.3495 20.5221C10.4773 20.6144 10.6445 20.6217 10.7626 20.7103C11.059 20.9325 11.489 20.9069 11.8074 21.0888C11.9313 21.1596 12.228 21.1754 12.3741 21.1754C12.5618 21.1754 12.1362 21.3773 12.0648 21.409C11.8191 21.5182 11.567 21.6182 11.3142 21.7118C11.1576 21.7698 11.0052 21.785 10.847 21.8286C10.6974 21.8699 10.5301 21.9151 10.3733 21.9151C9.94428 21.9151 9.51527 21.9151 9.08626 21.9151C8.77448 21.9151 8.59914 21.8519 8.3162 21.768C8.09607 21.7028 7.8612 21.7846 7.70189 21.6253C7.64386 21.5673 7.50093 21.5831 7.42717 21.5604C7.30208 21.5219 7.19967 21.4203 7.07027 21.3787C6.83632 21.3035 6.61739 21.2572 6.38024 21.1948C6.27688 21.1676 6.18844 21.1138 6.08823 21.078C6.00066 21.0467 5.82061 21.0003 5.75511 20.9417C5.66131 20.8578 5.56351 20.8107 5.46526 20.7384C5.3465 20.6511 5.21849 20.4922 5.09105 20.4334C5.00091 20.3918 4.86166 20.2851 4.78389 20.2193C4.70185 20.1499 4.5589 19.9412 4.45294 19.9294C4.26949 19.909 4.05836 19.5469 3.91 19.4449C3.69046 19.294 3.59223 18.9542 3.40168 18.7916C3.16185 18.5871 2.92555 18.1842 2.81765 17.8875C2.72667 17.6373 2.51233 17.4305 2.38935 17.2039C2.28428 17.0104 2.07787 16.7507 2.07787 16.542" stroke="#1D3D34" stroke-linecap="round"/>
<path d="M7.02204 9.65063C7.16412 9.81048 7.02204 10.2249 7.02204 10.4099C7.02204 10.537 6.9369 10.6456 6.88576 10.7581C6.84489 10.8481 6.8663 10.9739 6.8663 11.0718C6.8663 11.294 6.74949 11.4598 6.74949 11.6753C6.74949 11.9248 6.74949 12.1742 6.74949 12.4237C6.74949 12.7027 6.73687 12.9784 6.78626 13.25C6.79957 13.3232 6.8663 13.3725 6.8663 13.4468C6.8663 13.5299 6.8602 13.6152 6.86846 13.6978C6.88553 13.8685 6.90092 14.1397 7.00041 14.2818C7.06978 14.3809 7.09991 14.5939 7.09991 14.7122C7.09991 14.8836 7.17402 15.03 7.17778 15.1881C7.18417 15.4565 7.26931 15.8138 7.41139 16.0447C7.57355 16.3082 7.62922 16.618 7.80075 16.8753C7.98411 17.1504 8.13709 17.4676 8.42372 17.6519C8.69846 17.8285 8.9703 18.0726 9.21973 18.2943C9.31842 18.382 9.47444 18.5487 9.60043 18.5971C9.69672 18.6342 9.69674 18.6912 9.77781 18.7442C9.85405 18.7941 9.93576 18.7752 10.0114 18.8481C10.1353 18.9673 10.2521 19.0402 10.3921 19.1293C10.5245 19.2135 10.7573 19.2601 10.855 19.3845C10.9658 19.5254 11.2067 19.6006 11.3633 19.696C11.539 19.8029 11.7 19.8652 11.8868 19.9469C11.9761 19.986 12.2087 20.1171 12.2935 20.0832C12.336 20.0662 12.2355 19.9603 12.2221 19.9469C12.1822 19.907 12.2208 19.8466 12.1788 19.8106C12.0927 19.7368 12.0306 19.5112 11.9452 19.4624C11.8553 19.411 11.7217 19.1384 11.677 19.0363C11.6245 18.9162 11.5826 18.8022 11.5299 18.6837C11.4557 18.5166 11.3722 18.3901 11.2747 18.2251C11.1846 18.0726 11.0955 17.9099 11.041 17.7406C10.9906 17.5837 10.8977 17.4662 10.8464 17.3123C10.6734 16.7933 10.3666 16.3008 10.2515 15.783C10.2287 15.6801 10.2147 15.6011 10.2147 15.491C10.2147 15.3355 10.1124 15.2076 10.0979 15.0627C10.0727 14.8099 10.0201 14.5857 10.0201 14.3229C10.0201 13.8232 10.0201 13.3235 10.0201 12.8239C10.0201 12.5855 10.0316 12.282 10.1282 12.0646C10.2162 11.8667 10.1737 11.6021 10.2623 11.4027C10.356 11.1919 10.3583 10.954 10.5089 10.7603C10.6206 10.6168 10.4737 10.4606 10.3316 10.4099C10.1863 10.358 10.0875 10.212 9.94004 10.1936C9.80459 10.1766 9.77229 10.0474 9.63072 10.04C9.50023 10.0331 9.31948 9.99214 9.19377 9.95347C8.83063 9.84173 8.45451 9.81965 8.12088 9.629C8.0423 9.5841 7.93797 9.62689 7.85266 9.59439C7.75242 9.55621 7.64205 9.53903 7.5455 9.49489C7.42907 9.44166 7.29293 9.45685 7.17778 9.40837C6.91794 9.29896 6.9831 9.67934 6.9831 9.84531" stroke="#1D3D34" stroke-linecap="round"/>
<path d="M14.7402 7.29656C14.6174 7.43307 14.5525 7.64949 14.3775 7.7245C14.2473 7.78029 14.1485 7.96883 14.0745 8.082C13.9884 8.21377 13.8623 8.30925 13.7752 8.43597C13.6889 8.56149 13.6344 8.68216 13.5357 8.78643C13.3135 9.02096 13.1557 9.34277 12.9651 9.60357C12.7384 9.9137 12.4634 10.2329 12.324 10.6003C12.2913 10.6867 12.1852 10.7616 12.1743 10.8486C12.1603 10.9614 12.1436 11.0432 12.0652 11.1304C11.9834 11.2213 11.9665 11.4973 11.926 11.6147C11.79 12.0091 11.7421 12.4262 11.6337 12.8193C11.5511 13.1188 11.5703 13.4357 11.5703 13.7456C11.5703 14.106 11.5703 14.4665 11.5703 14.8269C11.5703 15.1811 11.6302 15.6148 11.7763 15.9364C11.8682 16.1384 11.9148 16.3532 12.0317 16.5457C12.0621 16.5957 12.0532 16.6706 12.0793 16.7271C12.1201 16.8156 12.1869 16.8788 12.2025 16.9807C12.2292 17.154 12.3599 17.3391 12.4262 17.5108C12.5021 17.7072 12.6337 17.8589 12.7256 18.0426C12.9003 18.392 13.1118 18.7483 13.3596 19.0412C13.5724 19.2927 13.7858 19.5441 13.9953 19.8002C14.1099 19.9403 14.2207 20.0758 14.3281 20.2228C14.3821 20.2967 14.5195 20.4862 14.5993 20.5152C14.7062 20.554 14.822 20.7688 14.9304 20.7688C15.0168 20.7688 15.1206 20.6048 15.1206 20.531C15.1206 20.4555 15.2823 20.263 15.3425 20.2228C15.3952 20.1877 15.423 20.1036 15.4693 20.0573C15.5159 20.0107 15.5501 19.9589 15.5961 19.9129C15.8231 19.6859 16.0341 19.4342 16.2231 19.1697C16.3171 19.0381 16.3493 18.8779 16.4678 18.7594C16.5612 18.666 16.6364 18.5631 16.7302 18.4618C16.8204 18.3644 16.9052 18.18 16.9592 18.0585C17.0256 17.9091 17.1425 17.7927 17.2057 17.6376C17.2361 17.5631 17.2972 17.5589 17.3096 17.472C17.3225 17.3818 17.4103 17.327 17.4488 17.2501C17.5268 17.0941 17.6024 16.9323 17.6812 16.7747C17.7822 16.5728 17.869 16.3774 17.9595 16.1706C18.025 16.0208 18.1259 15.8691 18.1321 15.7039C18.1387 15.5246 18.3273 15.3625 18.3522 15.1756C18.3737 15.0143 18.3941 14.8454 18.442 14.6895C18.6225 14.1031 18.5442 13.4834 18.5442 12.8739C18.5442 12.5459 18.354 12.2584 18.354 11.9387C18.354 11.8183 18.2437 11.6479 18.2025 11.5196C18.1426 11.3331 18.0525 11.1572 17.9877 10.9719C17.9539 10.8756 17.8875 10.7972 17.8538 10.713C17.8289 10.6508 17.839 10.5083 17.7834 10.4735C17.6787 10.4081 17.6802 10.1731 17.609 10.0703C17.5086 9.92518 17.4485 9.70728 17.3642 9.54721C17.2862 9.3989 17.1656 9.29214 17.086 9.15273C17.0112 9.0219 16.8319 8.79607 16.7126 8.70542C16.6015 8.62093 16.5606 8.42735 16.4361 8.3444C16.3095 8.25997 16.2413 8.04917 16.1033 7.96929C15.9947 7.9064 15.9132 7.81787 15.8022 7.7562C15.6563 7.67514 15.5322 7.58278 15.4059 7.46915C15.3163 7.38853 15.2113 7.32388 15.1224 7.23492C15.0707 7.18319 14.9727 7.07035 14.9111 7.04297C14.8557 7.01838 14.8036 6.96 14.8036 7.04297C14.8036 7.13283 14.745 7.17839 14.7156 7.25782C14.6639 7.39731 14.6138 7.65559 14.4866 7.74035" stroke="#1D3D34" stroke-linecap="round"/>
<path d="M19.428 10.8055C19.4574 10.7028 19.6299 11.0574 19.6389 11.09C19.6814 11.2428 19.737 11.3381 19.737 11.5019C19.737 11.7669 19.8253 12.0433 19.8253 12.3062C19.8253 12.4388 19.9135 12.5242 19.9135 12.6593C19.9135 12.777 19.9135 12.8947 19.9135 13.0124C19.9135 13.2887 19.9135 13.565 19.9135 13.8412C19.9135 14.3006 19.9135 14.7599 19.9135 15.2193C19.9135 15.8635 19.5529 16.4295 19.3496 17.0191C19.2939 17.1805 19.1839 17.2955 19.1289 17.4605C19.0896 17.5785 19.0421 17.7354 18.967 17.8332C18.7265 18.1467 18.5891 18.5608 18.3418 18.8631C18.1784 19.0627 18.0323 19.3382 17.9053 19.5669C17.8464 19.6729 17.7916 19.7757 17.7263 19.8783C17.6245 20.0381 17.5479 20.0826 17.7606 20.0745C17.8671 20.0704 18.0011 19.9644 18.0794 19.8979C18.1949 19.7997 18.3631 19.758 18.4913 19.6772C18.6545 19.5745 18.9555 19.3241 19.1436 19.3241C19.281 19.3241 19.3367 19.2421 19.4501 19.1917C19.549 19.1478 19.6669 19.1673 19.7468 19.0936C19.8413 19.0064 19.9423 19.0032 20.0558 18.9612C20.2158 18.9019 20.4103 18.7392 20.5535 18.64C20.7817 18.482 21.0398 18.3332 21.2132 18.1103C21.3411 17.9458 21.7586 17.6104 21.7673 17.3919C21.7751 17.1977 22.0436 17.0169 22.1106 16.8426C22.1705 16.6868 22.273 16.5693 22.3313 16.4208C22.3806 16.2955 22.4909 16.0896 22.5863 15.9942C22.7016 15.8789 22.6644 15.8724 22.6967 15.7269C22.7309 15.573 22.8708 15.4683 22.8708 15.3076C22.8708 15.0079 23.0185 14.7572 23.0473 14.469C23.1218 13.7242 23.3808 13.0009 23.4421 12.2645C23.4925 11.6597 23.5173 10.9081 23.3661 10.32C23.3283 10.1732 23.268 10.1131 23.268 9.9571C23.268 9.83388 23.2684 9.7284 23.2141 9.6138C23.0634 9.29566 22.5691 9.64273 22.3411 9.72415C22.1523 9.79158 21.961 9.83537 21.7722 9.9007C21.6067 9.95801 21.4792 10.0732 21.3014 10.0969C21.1379 10.1187 21.0356 10.0959 20.8821 10.1631C20.7494 10.2211 20.5335 10.2705 20.3893 10.2759C20.1409 10.2851 19.8782 10.3654 19.6291 10.4107C19.1478 10.4982 19.5163 10.6995 19.5163 10.9821" stroke="#1D3D34" stroke-linecap="round"/>
<path d="M17.4859 21.575C17.883 21.575 18.3525 21.2902 18.7242 21.1508C19.1558 20.989 19.5315 20.6978 19.9478 20.5256C20.595 20.2578 21.2196 19.9371 21.7943 19.5374C22.0592 19.353 22.3511 19.1748 22.552 18.9219C22.6431 18.8071 22.7001 18.7068 22.7727 18.5737C22.843 18.4447 22.9602 18.394 23.013 18.2549C23.1253 17.9587 23.3405 17.7137 23.4666 17.4335C23.5849 17.1706 23.8316 16.9093 23.9938 16.6733C24.1711 16.4154 24.2527 16.1227 24.3812 15.8371C24.4491 15.6863 24.3762 15.3686 24.5259 15.2854C24.6904 15.194 24.8959 15.5144 25.0678 15.5282C25.1777 15.537 25.2755 15.6551 25.3768 15.6949C25.5467 15.7617 25.7242 15.8206 25.8966 15.8813C26.4825 16.0874 27.0011 16.3706 27.5101 16.6978C27.5583 16.7288 27.7644 16.7573 27.77 16.8082C27.782 16.9161 27.7098 16.9812 27.6376 17.0534C27.4691 17.2219 27.3507 17.4209 27.1962 17.6026C26.9257 17.9209 26.8342 18.4064 26.544 18.7208C26.2476 19.0419 26.028 19.413 25.6514 19.6551C25.3651 19.8391 24.9084 20.1315 24.7343 20.4275C24.6388 20.5899 24.3376 20.6438 24.2145 20.7781C24.1304 20.8699 23.9468 20.9042 23.8442 20.9792C23.6992 21.0852 23.5506 21.1841 23.4028 21.2857C23.1887 21.4329 22.9023 21.5432 22.7187 21.7075C22.4905 21.9117 22.1888 21.9832 21.9267 22.1243C21.522 22.3422 20.9312 22.2371 20.4873 22.2371C20.2024 22.2371 19.9469 22.1725 19.6732 22.1464C19.395 22.1199 19.004 22.0503 18.7439 21.9502C18.6499 21.9141 18.5041 21.891 18.403 21.884C18.2597 21.8741 18.152 21.7935 18.0156 21.7614C17.7927 21.709 17.5828 21.5309 17.3535 21.5309" stroke="#1D3D34" stroke-linecap="round"/>
</svg>
