<svg width="30" height="30" viewBox="0 0 30 30" fill="none" xmlns="http://www.w3.org/2000/svg">
<path d="M16.2023 20.2746C15.886 20.2746 15.5698 20.2746 15.2535 20.2746C15.1049 20.2746 14.9564 20.2746 14.8079 20.2746C14.5965 20.2746 14.5599 20.4168 14.393 20.4855C13.9724 20.6587 13.5808 21.4961 13.4611 21.9615C13.3638 22.3399 13.4475 22.8218 13.4475 23.2131C13.4475 23.5621 13.7568 24.3209 14.0291 24.5327C14.5579 24.944 15.0535 24.9884 15.7126 24.9884C15.9998 24.9884 16.3509 25.0482 16.6037 24.8966C16.9634 24.6807 17.286 24.4318 17.5185 24.0701C17.8749 23.5157 17.794 22.8079 17.794 22.1724C17.794 21.5572 17.3156 21.0544 16.971 20.6113C16.9027 20.5235 16.4411 20.2815 16.3248 20.2746C16.1021 20.2615 15.8745 20.2746 15.6514 20.2746" stroke="#1D3D34" stroke-linecap="round"/>
<path d="M7.63281 16.3566C8.26703 15.7224 8.71879 14.8217 9.52717 14.367C9.83183 14.1956 10.1075 13.7855 10.4794 13.7855C10.6074 13.7855 10.8442 13.6857 10.9386 13.6018C11.1032 13.4555 11.4274 13.4559 11.6256 13.3433C12.0697 13.091 12.5904 12.9627 13.0812 12.8536C13.313 12.8021 13.5648 12.8466 13.7886 12.772C14.0001 12.7015 14.173 12.6223 14.3974 12.6223C15.2238 12.6223 16.0503 12.6223 16.8767 12.6223C17.235 12.6223 17.5683 12.6641 17.9174 12.6835C18.0603 12.6915 18.1611 12.806 18.3153 12.806C18.6223 12.806 18.8905 12.9896 19.1996 12.9896C19.3742 12.9896 19.5942 12.9888 19.754 13.0644C19.9131 13.1398 20.0907 13.192 20.2437 13.2685C20.3323 13.3128 20.356 13.3927 20.4308 13.4488C20.5341 13.5262 20.6288 13.5046 20.7334 13.5542C20.9152 13.6403 21.0929 13.9052 21.2708 14.0303C21.9907 14.5369 22.5779 15.1481 22.9679 15.9281C23.1393 16.2709 23.4882 16.6273 23.4882 17.03C23.4882 17.3405 23.5543 17.7538 23.427 18.0401C23.2645 18.4058 22.9612 18.8918 22.5394 18.9856C22.3239 19.0334 22.1194 19.1179 21.917 19.1998C21.7982 19.2479 21.6917 19.3563 21.5599 19.3563C21.4921 19.3563 21.4093 19.3431 21.3456 19.3699C21.1879 19.4363 20.9955 19.4787 20.8253 19.4787C20.6272 19.4787 20.5184 19.6124 20.3049 19.6012C20.1652 19.5938 19.956 19.408 19.8458 19.3223C19.6645 19.1813 19.4785 19.0366 19.2948 18.8937C19.1451 18.7773 19.0001 18.6382 18.8357 18.5468C18.6539 18.4459 18.4196 18.3563 18.2575 18.2238C18.0297 18.0373 17.6551 17.7758 17.3529 17.7646C17.1715 17.7579 17.0346 17.581 16.8427 17.581C16.6441 17.581 16.4638 17.5197 16.2645 17.5197C15.8644 17.5197 15.4642 17.5197 15.064 17.5197C14.6686 17.5197 14.1648 17.4442 13.7886 17.581C13.3896 17.726 12.9943 17.8557 12.5915 18.0571C12.1823 18.2617 11.7727 18.4076 11.3671 18.6217C11.2068 18.7063 11.0579 18.8155 10.8774 18.8529C10.7172 18.8862 10.5272 18.8902 10.391 18.9924C10.2433 19.1032 10.0001 19.1958 9.80945 19.2304C9.33782 19.3162 9.10915 19.1335 8.74154 18.8971C8.58593 18.7971 8.43728 18.617 8.38103 18.438C8.30958 18.2107 8.08315 18.0433 7.98652 17.8258C7.89831 17.6274 7.90051 17.4881 7.87428 17.2783C7.85283 17.1067 7.75525 17.0088 7.75525 16.8123C7.75525 16.6474 7.70249 16.3835 7.76885 16.2342C7.85017 16.0512 7.9549 15.9653 8.06134 15.8056" stroke="#1D3D34" stroke-linecap="round"/>
<path d="M2.06122 11.8878C2.06122 11.6024 2.03087 11.1715 2.19726 10.9219C2.34261 10.7039 2.39982 10.3106 2.56456 10.1261C2.75152 9.91669 3.0029 9.61782 3.14954 9.37786C3.31927 9.10012 3.74709 8.91635 3.98618 8.67726C4.2214 8.44204 4.69615 8.27126 4.99968 8.1195C5.35559 7.94154 5.72506 7.67087 6.06759 7.4529C6.95765 6.8865 8.06382 6.7313 8.95843 6.19453C9.22981 6.03171 9.58202 5.97944 9.8699 5.84083C10.0906 5.73457 10.2889 5.67783 10.5229 5.62997C10.9588 5.54081 11.4094 5.29312 11.8561 5.27626C12.4945 5.25217 13.1838 5.1867 13.8083 5.0586C14.3614 4.94513 14.9973 5.03139 15.5598 5.03139C16.1504 5.03139 16.741 5.03139 17.3317 5.03139C17.8047 5.03139 18.333 4.96701 18.8009 5.045C19.7794 5.20809 20.5975 5.53684 21.5081 5.86464C22.0492 6.05943 22.5443 6.33616 23.0862 6.53123C23.3213 6.61586 23.5438 6.71593 23.763 6.83392C23.8615 6.88701 23.978 6.87527 24.0725 6.94275C24.1558 7.00229 24.1943 7.09142 24.2867 7.14341C24.6392 7.3417 24.9546 7.55888 25.3002 7.75899C25.6181 7.94303 25.8479 8.32213 26.1811 8.50721C26.8103 8.85676 27.0922 9.55437 27.5891 10.0513C27.9086 10.3708 28.3849 10.8148 28.3849 11.3062C28.3849 11.789 28.6298 12.2754 28.6298 12.7789C28.6298 12.9768 28.4157 13.2753 28.2319 13.357C28.0246 13.4492 27.8404 13.7673 27.6231 13.8332C27.3952 13.9022 27.1975 14.0916 26.9769 14.0916C26.6912 14.0916 26.4055 14.0916 26.1198 14.0916C25.7205 14.0916 25.5193 14.0721 25.171 13.9114C24.8425 13.7598 24.6021 13.5384 24.2833 13.3706C23.7649 13.0978 23.1127 12.8223 22.7529 12.3299C22.628 12.1591 22.3671 12.0346 22.2019 11.8878C22.0089 11.7163 21.7577 11.7442 21.5557 11.6157C21.0461 11.2914 20.3953 11.1953 19.8756 10.9355C19.4043 10.6999 18.9275 10.4011 18.3588 10.3573C17.3411 10.2791 16.3378 9.80639 15.3115 9.80639C14.7877 9.80639 14.264 9.80639 13.7402 9.80639C13.5024 9.80639 13.1196 9.76412 12.924 9.92882C12.7366 10.0866 12.26 10.0225 12.0125 10.1125C11.7647 10.2026 11.4991 10.352 11.2711 10.4764C11.1464 10.5444 11.0341 10.5091 10.9106 10.5444C10.7837 10.5807 10.6772 10.752 10.5399 10.7825C10.3933 10.815 10.2633 10.8471 10.1114 10.8471C9.92708 10.8471 9.89584 10.9936 9.74406 11.0273C9.36207 11.1122 9.08245 11.3235 8.73397 11.5069C8.50521 11.6273 8.18613 11.7819 7.99935 11.949C7.75271 12.1697 7.34082 12.2185 7.10829 12.4388C6.72181 12.8049 6.07311 13.1794 5.58465 13.357C5.19901 13.4973 4.79172 13.8468 4.35689 13.8468C3.91363 13.8468 3.47036 13.8468 3.0271 13.8468C2.62189 13.8468 2.60747 13.5726 2.42853 13.3094C2.26856 13.0742 2.12244 12.8434 2.12244 12.5306C2.12244 12.0361 2 11.5353 2 11.0307" stroke="#1D3D34" stroke-linecap="round"/>
</svg>
