<svg width="816" height="360" viewBox="0 0 816 360" fill="none" xmlns="http://www.w3.org/2000/svg">
<path d="M12.8096 3.21933C37.8304 3.21933 62.8353 3.39352 87.8162 4.45098C98.3704 4.89775 107.545 8.41034 117.663 10.0906C123.746 11.1009 129.358 11.0124 135.499 12.5539C151.343 16.5314 170.124 13.7208 186.364 13.7208C205.541 13.7208 224.718 13.7208 243.895 13.7208C251.113 13.7208 258.562 14.3617 265.754 13.6559C270.689 13.1717 275.891 10.6 280.888 9.63688C294.966 6.92326 309.374 7.88664 323.646 7.88664C348.228 7.88664 372.809 7.88664 397.391 7.88664C410.197 7.88664 424.136 8.80977 436.486 12.6188C444.249 15.0129 451.653 15.18 459.486 16.6378C465.282 17.7165 470.603 19.5549 476.542 19.5549C487.266 19.5549 498.733 20.8334 509.211 18.1288C523.903 14.3362 538.507 10.9302 553.41 8.14593C566.978 5.61106 579.015 2.0525 593.225 2.0525C607.498 2.0525 621.771 2.0525 636.043 2.0525C662.949 2.0525 689.159 1.10725 715.554 7.2384C727.985 10.126 740.522 12.3187 752.787 15.471C760.133 17.359 768.946 16.0544 776.448 16.0544C783.494 16.0544 790.541 16.0544 797.587 16.0544C805.576 16.0544 813.801 13.9301 813.801 25.389C813.801 36.2311 814.687 47.5117 812.72 58.125C810.412 70.5854 808.798 85.196 803.532 96.5655C799.706 104.826 797.587 110.383 797.587 119.643C797.587 131.974 795.647 144.135 796.746 156.592C797.973 170.495 803.941 181.501 807.796 194.579C809.614 200.746 808.936 209.612 809.417 216.1C809.827 221.626 811.639 227.079 811.639 232.501C811.639 255.874 812.72 279.58 812.72 303.094C812.72 311.766 811.639 320.133 811.639 328.764C811.639 331.898 812.206 335.638 811.579 338.682C810.896 342.001 801.348 340.432 799.268 340.432C782.88 340.432 766.94 341.599 750.565 341.599C739.91 341.599 730.723 342.223 720.358 345.1C711.927 347.44 703.106 350.454 694.535 351.841C689.626 352.636 685.007 352.328 680.122 353.527C662.077 357.954 644.691 359.174 626.255 356.833C616.003 355.531 605.542 353.325 595.447 350.674C586.503 348.326 578.257 345.1 568.904 345.1C562.47 345.1 557.781 342.766 551.728 342.766C542.505 342.766 532.928 341.599 523.503 341.599C486.425 341.599 449.59 343.933 412.525 343.933C404.257 343.933 395.513 342.895 387.482 345.229C378.686 347.786 369.938 349.767 360.819 349.767C350.71 349.767 340.601 349.767 330.492 349.767C309.049 349.767 287.746 349.782 267.436 342.766C246.195 335.429 224.187 336.932 202.098 336.932C193.554 336.932 185.351 341.284 176.875 341.599C162.299 342.142 148.424 347.834 133.877 348.6C124.963 349.069 117.131 354.434 107.934 354.434C98.3656 354.434 88.7971 354.434 79.2286 354.434C61.7731 354.434 44.3176 354.434 26.8621 354.434C16.5334 354.434 10.5737 349.682 7.64501 338.617C6.13448 332.91 2 325.827 2 320.013C2 309.922 2 299.831 2 289.74C2 284.641 2 279.541 2 274.442C2 262.631 6.25726 250.65 9.44662 239.437C14.2354 222.6 22.5382 206.706 22.5382 188.745C22.5382 176.557 24.1857 160.729 18.7549 149.656C14.376 140.728 12.8697 125.866 11.7887 115.948C9.57664 95.6517 10.6477 74.7779 10.6477 54.3004C10.6477 37.7865 9.56672 21.0835 9.56672 4.38616" stroke="#1D3D34" stroke-width="3" stroke-linecap="round"/>
</svg>
