<svg width="50" height="45" viewBox="0 0 50 45" fill="none" xmlns="http://www.w3.org/2000/svg">
<g clip-path="url(#clip0_184_4)">
<path d="M40.1997 36.1111C37.8984 36.1111 36.1111 37.9766 36.1111 40.2778C36.1111 42.579 37.9766 44.4444 40.1997 44.4444C42.4227 44.4444 44.2882 42.579 44.2882 40.2778C44.2882 37.9766 42.5781 36.1111 40.1997 36.1111ZM15.1997 36.1111C12.8984 36.1111 11.1111 37.9766 11.1111 40.2778C11.1111 42.579 12.9774 44.4444 15.1997 44.4444C17.4219 44.4444 19.2882 42.579 19.2882 40.2778C19.2882 37.9766 17.5781 36.1111 15.1997 36.1111ZM49.4358 3.88281C48.9055 3.18021 48.0972 2.77778 47.217 2.77778H10.5122L10.3819 1.69358C10.191 0.710938 9.3316 0 8.33333 0H2.00521C0.93316 0 0 0.93316 0 2.00521C0 3.07726 0.93316 4.16667 2.00521 4.16667H6.53125L11.7639 31.6406C12.0312 32.6215 12.8906 33.3333 13.8889 33.3333H42.3611C43.5113 33.3333 44.4444 32.4002 44.4444 31.3281C44.4444 30.0955 43.5156 29.1667 42.3611 29.1667H15.6163L14.8177 25H42.4566C43.697 25 44.7865 24.178 45.1276 22.9852L49.8898 6.3967C50.1302 5.47309 49.9653 4.58594 49.4358 3.88281Z" fill="#1D3D34"/>
</g>
<defs>
<clipPath id="clip0_184_4">
<rect width="50" height="44.4444" fill="white"/>
</clipPath>
</defs>
</svg>
