<svg width="1004" height="604" viewBox="0 0 1004 604" fill="none" xmlns="http://www.w3.org/2000/svg">
<path d="M4.72159 35.5728C79.864 35.5728 149.865 33.4393 223.885 22.5564C304.87 10.6492 382.412 -0.0218281 465.748 2.10197C516.724 3.4011 561.214 17.1783 610.596 23.5894C639.875 27.3907 668.313 35.5728 698.153 35.5728C732.923 35.5728 767.694 35.5728 802.465 35.5728C818.766 35.5728 982.677 26.5619 987.037 41.5645C1002.68 95.3736 1000.18 153.011 983.524 208.712C967.589 262.013 958.122 313.23 958.122 368.628C958.122 395.659 987.308 416.165 987.308 442.801C987.308 453.338 987.308 463.875 987.308 474.412C987.308 485.205 996.381 491.433 997.036 500.445C998.627 522.337 1001.9 543.423 1001.9 565.734C1001.9 596.962 981.307 593.419 948.393 593.419C893.514 593.419 843.944 582.263 790.304 582.263C712.568 582.263 633.114 578.265 556.008 585.155C508.228 589.425 466.156 600.857 417.105 600.857C373.687 600.857 330.269 600.857 286.85 600.857C208.484 600.857 132.253 609.224 65.7954 576.891C57.8223 573.011 5.56003 566.841 4.99183 565.32C-1.80261 547.139 4.72159 519.59 4.72159 500.445C4.72159 477.849 1.34795 453.325 8.50493 431.437C18.6141 400.522 29.4706 368.871 33.6371 337.017C40.7544 282.602 38.7716 227.364 38.7716 172.349C38.7716 148.183 29.6078 120.695 23.9085 96.7293C21.3298 85.8858 9.58588 85.3498 9.58588 72.7625C9.58588 61.6056 9.58588 50.4487 9.58588 39.2917" stroke="#1D3D34" stroke-width="3" stroke-linecap="round"/>
</svg>
