<svg width="1004" height="604" viewBox="0 0 1004 604" fill="none" xmlns="http://www.w3.org/2000/svg">
<path d="M6.37874 27.6592C53.8799 27.6592 101.381 27.6592 148.882 27.6592C192.399 27.6592 233.653 23.1307 276.551 19.4794C291.469 18.2096 306.049 16.7198 320.831 14.8389C329.627 13.7196 338.09 10.9866 347.129 10.6703C365.462 10.0288 383.415 9.25459 401.86 9.25459C422.251 9.25459 441.48 9.73354 461.649 12.0861C482.938 14.5693 506.625 17.8521 526.719 23.412C542.965 27.907 564.607 26.2434 581.788 26.2434C605.445 26.2434 629.69 26.0584 652.815 22.6254C675.664 19.2334 698.263 15.5546 720.807 11.3782C741.795 7.49013 763.883 6.51997 784.754 2.49051C794.884 0.534765 808.564 2.1759 819.144 2.1759C833.695 2.1759 852.046 4.0774 866.008 7.13098C878.706 9.90797 896.846 8.98022 908.152 13.5018C919.906 18.2021 934.469 15.4997 947.037 19.1648C960.095 22.9725 978.325 20.8745 989.519 27.03C997.028 31.1593 995.585 43.7232 998.06 49.6818C1002.91 61.3554 1001.66 72.9175 1001.66 85.0752C1001.66 101.995 1003.51 119.574 1000.08 136.356C997.716 147.954 995.588 160.357 995.588 172.064C995.588 189.257 993.527 206.149 991.654 223.188C990.545 233.277 990.372 243.041 987.945 253.076C985.15 264.635 979.404 274.51 979.404 286.425C979.404 301.714 976.535 318.584 982.439 333.459C987.522 346.266 995.123 358.525 998.06 371.998C1002.43 392.064 999.633 413.673 999.633 433.976C999.633 444.62 999.633 455.264 999.633 465.909C999.633 478.777 988.125 490.787 981.427 502.246C971.678 518.923 969.29 539.951 969.29 557.932C969.29 565.833 969.102 572.06 965.693 579.482C961.542 588.521 965.71 601.033 947.712 601.033C916.619 601.033 885.526 601.033 854.433 601.033C830.782 601.033 805.594 602.702 782.282 599.932C732.236 593.984 681.196 581.213 630.45 581.213C581.49 581.213 532.45 579.797 483.339 579.797C457.847 579.797 435.12 582.223 410.064 585.145C399.108 586.423 386.524 588.291 375.45 588.291C366.771 588.291 357.542 587.709 349.039 589.157C327.359 592.847 309.71 593.954 287.228 593.954C263.739 593.954 240.251 593.954 216.763 593.954C182.872 593.954 152.047 587.537 118.876 583.965C88.6961 580.716 58.8408 574.308 28.1813 572.718C12.4387 571.902 14.4704 566.31 14.4704 556.594C14.4704 549.123 14.4704 541.651 14.4704 534.179C14.4704 513.205 11.2747 490.676 16.6057 470.156C19.6868 458.296 24.8141 447.398 26.7203 435.392C28.702 422.91 38.3557 410.818 38.7455 398.268C39.4843 374.483 39.0674 351.956 27.7318 329.29C25.2832 324.394 24.824 318.712 23.0117 313.638C21.2965 308.837 16.4934 306.878 16.4934 301.683C16.4934 288.85 7.01024 277.956 4.46821 265.503C-0.184079 242.712 3.47652 218.901 4.35582 196.132C4.9104 181.772 10.9614 168.66 12.4475 154.446C13.6438 143.005 22.5621 131.969 22.5621 120.39C22.5621 105.887 22.0628 92.0012 16.0438 78.3111C9.09317 62.5018 6.37874 45.5269 6.37874 29.0749" stroke="#1D3D34" stroke-width="3" stroke-linecap="round"/>
</svg>
