<svg width="804" height="354" viewBox="0 0 804 354" fill="none" xmlns="http://www.w3.org/2000/svg">
<path d="M12.6499 3.19878C37.3009 3.19878 61.9363 3.37003 86.548 4.40967C96.9462 4.84891 105.985 8.3023 115.953 9.95428C121.947 10.9475 127.476 10.8605 133.526 12.3761C149.136 16.2865 167.639 13.5232 183.639 13.5232C202.533 13.5232 221.426 13.5232 240.32 13.5232C247.431 13.5232 254.771 14.1534 261.856 13.4595C266.718 12.9834 271.844 10.455 276.766 9.50817C290.636 6.84028 304.831 7.78742 318.892 7.78742C343.111 7.78742 367.329 7.78742 391.548 7.78742C404.164 7.78742 417.897 8.695 430.065 12.4398C437.713 14.7936 445.008 14.9579 452.726 16.3911C458.436 17.4516 463.678 19.259 469.529 19.259C480.094 19.259 491.392 20.516 501.715 17.857C516.191 14.1283 530.578 10.7797 545.261 8.04235C558.629 5.5502 570.488 2.05162 584.488 2.05162C598.55 2.05162 612.611 2.05162 626.673 2.05162C653.181 2.05162 679.004 1.12229 705.009 7.15011C717.257 9.98907 729.608 12.1448 741.692 15.244C748.929 17.1002 757.612 15.8176 765.003 15.8176C771.945 15.8176 778.887 15.8176 785.829 15.8176C793.7 15.8176 801.804 13.729 801.804 24.9948C801.804 35.6542 802.677 46.7446 800.739 57.1791C798.465 69.4295 796.875 83.7938 791.687 94.9717C787.917 103.093 785.829 108.557 785.829 117.66C785.829 129.784 783.918 141.74 785.001 153.987C786.21 167.655 792.09 178.476 795.888 191.333C797.679 197.396 797.011 206.113 797.485 212.492C797.889 217.924 799.674 223.285 799.674 228.616C799.674 251.595 800.739 274.901 800.739 298.019C800.739 306.545 799.674 314.771 799.674 323.257C799.674 326.338 800.232 330.015 799.615 333.008C798.942 336.271 789.535 334.728 787.486 334.728C771.34 334.728 755.636 335.876 739.503 335.876C729.004 335.876 719.954 336.488 709.742 339.317C701.436 341.618 692.745 344.581 684.301 345.945C679.464 346.727 674.914 346.424 670.101 347.602C652.322 351.955 635.194 353.154 617.029 350.852C606.929 349.572 596.623 347.404 586.677 344.798C577.865 342.489 569.741 339.317 560.526 339.317C554.188 339.317 549.567 337.023 543.604 337.023C534.518 337.023 525.082 335.876 515.796 335.876C479.266 335.876 442.975 338.17 406.458 338.17C398.312 338.17 389.698 337.15 381.786 339.445C373.119 341.958 364.5 343.906 355.516 343.906C345.556 343.906 335.597 343.906 325.637 343.906C304.512 343.906 283.523 343.92 263.513 337.023C242.586 329.809 220.904 331.287 199.141 331.287C190.724 331.287 182.641 335.565 174.291 335.876C159.93 336.409 146.26 342.005 131.928 342.759C123.146 343.22 115.43 348.494 106.369 348.494C96.9415 348.494 87.5144 348.494 78.0873 348.494C60.8898 348.494 43.6922 348.494 26.4947 348.494C16.3186 348.494 10.447 343.822 7.56159 332.944C6.07338 327.333 2 320.37 2 314.653C2 304.732 2 294.811 2 284.891C2 279.877 2 274.864 2 269.85C2 258.239 6.19435 246.46 9.33657 235.435C14.0546 218.882 22.2347 203.256 22.2347 185.597C22.2347 173.615 23.8579 158.054 18.5073 147.168C14.1932 138.39 12.709 123.778 11.644 114.027C9.46467 94.0733 10.5199 73.5513 10.5199 53.419C10.5199 37.1833 9.4549 20.7619 9.4549 4.34594" stroke="#1D3D34" stroke-width="3" stroke-linecap="round"/>
</svg>
