<svg width="1004" height="704" viewBox="0 0 1004 704" fill="none" xmlns="http://www.w3.org/2000/svg">
<path d="M2.29297 20.3835C32.1948 20.3835 60.9828 27.1958 91.0319 27.1958C109.659 27.1958 128.88 28.7547 147.199 24.925C164.074 21.3973 184.319 14.2537 201.314 13.5713C214.159 13.0555 226.119 14.1572 238.759 11.3005C253.615 7.94321 272.005 2.2175 287.232 2.2175C312.708 2.2175 338.184 2.2175 363.661 2.2175C406.751 2.2175 450.634 -1.12194 492.794 7.89439C513.008 12.2175 531.969 18.1128 552.808 18.1128C576.385 18.1128 599.862 16.2754 623.209 15.842C650.275 15.3396 673.567 12.3802 700.15 7.26362C723.202 2.82682 744.705 2.2175 768.115 2.2175C805.175 2.2175 842.235 2.2175 879.295 2.2175C892.244 2.2175 903.254 5.64459 915.201 10.1651C920.921 12.3292 927.94 9.47922 932.385 14.5805C934.373 16.8624 945.378 18.1128 948.671 18.1128C957.473 18.1128 966.245 20.3835 975.344 20.3835C982.614 20.3835 992.527 17.5972 992.527 27.1958C992.527 39.3065 992.527 51.4172 992.527 63.5278C992.527 94.6113 996.91 132.706 983.294 161.17C977.874 172.502 979.355 194.282 982.781 206.081C984.85 213.204 987.611 219.302 990.219 226.517C992.496 232.817 992.177 238.645 992.527 245.188C992.862 251.451 998.354 255.765 999.324 261.966C1003.99 291.808 1001.76 323.935 1001.76 354.184C1001.76 386.732 1001.76 419.279 1001.76 451.827C1001.76 470.866 999.452 489.857 999.452 509.1C999.452 527.809 993.509 544.743 992.527 563.094C991.008 591.493 971.509 624.641 982.14 653.924C985.68 663.673 983.294 677.812 983.294 687.985C983.294 692.126 985.671 701.61 979.832 701.61C971.107 701.61 962.871 701.768 954.313 699.843C945.095 697.771 937.23 694.617 928.41 691.265C917.752 687.214 905.894 688.201 894.812 686.219C871.999 682.138 852.287 676.631 828.514 676.631C781.231 676.631 737.323 682.311 691.174 691.391C656.47 698.219 618.245 690.256 583.456 690.256C567.785 690.256 555.594 677.433 540.113 676.631C525.403 675.87 510.474 676.631 495.743 676.631C485.099 676.631 475.59 676.857 465.223 679.407C453.561 682.275 438.388 687.552 426.496 687.985C413.331 688.465 400.041 687.985 386.871 687.985C358.614 687.985 331.509 690.256 303.262 690.256C288.25 690.256 273.059 691.284 258.636 686.85C240.257 681.2 220.776 672.09 201.314 672.09C184.045 672.09 166.776 672.09 149.507 672.09C130.269 672.09 111.468 680.231 92.3143 681.173C83.8138 681.591 76.1936 686.469 68.206 688.49C59.8097 690.614 51.675 690.256 43.0719 690.256C36.3944 690.256 11.1677 688.103 9.34592 680.037C4.94416 660.551 7.67019 629.619 11.5259 610.653C14.2164 597.419 16.1424 587.285 16.1424 573.438C16.1424 556.197 16.1424 538.956 16.1424 521.715C16.1424 508.229 19.0756 491.649 11.5259 479.58C5.8842 470.561 6.90945 460.385 6.90945 450.061C6.90945 434.586 6.90945 419.111 6.90945 403.636C6.90945 385.516 16.1424 369.854 16.1424 351.914C16.1424 324.954 18.4506 296.529 18.4506 268.905C18.4506 252.522 6.90945 239.575 6.90945 223.742C6.90945 209.269 4.60121 194.317 4.60121 179.336C4.60121 127.109 4.60121 74.8816 4.60121 22.6543" stroke="#1D3D34" stroke-width="3" stroke-linecap="round"/>
</svg>
