<svg width="1004" height="704" viewBox="0 0 1004 704" fill="none" xmlns="http://www.w3.org/2000/svg">
<path d="M21.3181 26.1783C54.1396 26.1783 87.4819 29.528 117.679 16.3246C140.671 6.27158 173.376 10.8881 198.325 10.8881C236.605 10.8881 274.884 10.8881 313.164 10.8881C338.502 10.8881 360.641 21.0791 384.83 25.8385C405.327 29.8713 427.582 29.2363 448.553 29.2363C498.789 29.2363 554.647 34.7464 602.937 20.0622C643.609 7.69465 684.468 1.71403 726.756 1.71403C743.124 1.71403 759.548 0.831022 775.109 6.47096C797.012 14.4095 821.416 10.2995 842.631 18.3633C879.348 32.3196 916.109 29.2363 955.225 29.2363C966.872 29.2363 981.933 27.9273 992.698 32.6341C1005.05 38.0349 1000.47 66.4369 1000.47 76.4658C1000.47 95.2313 1004.79 119.79 998.742 137.626C993.761 152.329 984.927 164.074 984.927 179.759C984.927 208.823 981.819 241.622 981.819 272.35C981.819 283.053 981.819 293.756 981.819 304.459C981.819 321.888 992.685 337.685 999.779 353.387C1004.19 363.157 1000.47 382.601 1000.47 393.142C1000.47 408.432 1000.47 423.722 1000.47 439.012C1000.47 469.279 1001.93 514.671 989.417 542.815C974.011 577.459 990.579 616.656 979.401 652.394C977.117 659.699 974.676 663.939 969.385 670.063C964.149 676.123 966.696 685.396 966.277 692.828C965.952 698.572 936.627 695.886 930.357 695.886C901.648 695.886 873.974 683.654 846.603 683.654C802.567 683.654 758.531 683.654 714.495 683.654C677.282 683.654 640.172 685.906 603.283 686.712C582.46 687.168 565.211 693.701 544.914 698.265C509.277 706.278 477.533 698.299 442.509 692.998C394.385 685.715 347.891 674.48 297.795 674.48C272.402 674.48 240.049 669.159 215.594 674.82C194.498 679.703 174.453 689.77 151.872 689.77C122.86 689.77 93.8479 689.77 64.836 689.77C53.5523 689.77 2.66765 694.459 2.66765 683.654C2.66765 673.129 0.690996 660.221 3.35841 650.016C5.65394 641.234 10.5686 635.275 15.1013 627.93C21.2323 617.996 21.245 604.848 27.535 594.292C45.6495 563.892 37.7194 521.471 25.8081 491.338C14.0737 461.653 5.77607 439.548 5.77607 407.073C5.77607 378.586 3.62551 348.629 8.71179 321.108C11.6476 305.223 21.3181 294.81 21.3181 278.296C21.3181 272.45 20.422 265.731 21.4908 259.948C22.7348 253.217 27.535 251.959 27.535 244.657C27.535 230.443 27.535 216.229 27.535 202.015C27.535 190.679 31.4395 170.903 26.8442 160.731C16.3631 137.531 15.1013 105.259 15.1013 79.6937C15.1013 69.4437 15.1013 59.1936 15.1013 48.9436C15.1013 29.7087 15.1398 23.8942 36.8602 29.2363" stroke="#1D3D34" stroke-width="3" stroke-linecap="round"/>
</svg>
