<svg width="504" height="404" viewBox="0 0 504 404" fill="none" xmlns="http://www.w3.org/2000/svg">
<path d="M7.32045 4.15314C14.1964 4.15314 19.5456 6.22594 25.8975 7.92114C33.1173 9.84799 40.7989 10.0218 48.1309 11.9284C53.3024 13.2732 58.7519 12.7657 64.0541 12.7657C67.1827 12.7657 69.8582 14.9189 73.1362 14.9189C82.7253 14.9189 94.0169 16.6009 103.331 14.3208C110.944 12.4571 119.309 12.8123 126.449 10.0145C131.321 8.10559 137.819 7.74256 142.962 7.38286C152.475 6.71754 161.219 3.07657 170.798 3.07657C178.779 3.07657 186.761 3.07657 194.742 3.07657C206.929 3.07657 219.351 4.15314 231.306 4.15314C240.4 4.15314 247.557 9.19831 256.547 9.536C263.485 9.79657 269.881 11.6891 277.012 11.6891C295.237 11.6891 316.169 14.5815 333.804 10.3733C339.054 9.12059 344.162 7.20689 349.55 6.36609C354.926 5.52743 360.814 5.11021 366.122 3.9139C373.761 2.19236 382.22 3.07657 390.066 3.07657C406.854 3.07657 423.642 3.07657 440.43 3.07657C448.011 3.07657 457.883 1.80006 464.846 5.22971C471.359 8.43821 481.407 10.6126 488.672 10.6126C490.803 10.6126 494.791 9.83108 496.692 10.8518C498.816 11.9921 498.815 19.3482 498.815 21.4381C498.815 31.0937 500.357 42.2979 498.579 51.7615C497.814 55.8383 497.897 59.9317 496.692 63.9028C495.424 68.0826 495.544 72.5332 494.333 76.5226C491.502 85.8542 492.62 95.8668 491.444 105.411C490.805 110.588 491.035 116.859 492.918 121.739C495.056 127.281 499.059 133.485 499.936 139.263C501.211 147.666 502 155.077 502 163.725C502 180.245 497.655 194.849 495.69 210.795C494.544 220.087 492.446 228.281 492.446 237.829C492.446 247.059 492.446 256.29 492.446 265.521C492.446 270.372 495.631 274.563 495.631 279.217C495.631 283.663 496.45 290.178 498.226 294.229C502.068 302.997 500.938 312.7 500.938 322.28C500.938 337.053 501.477 351.959 500.938 366.718C500.796 370.613 499.307 374.891 498.756 378.8C498.508 380.566 496.756 380.641 496.692 382.269C496.62 384.093 496.953 385.198 495.867 386.575C494.03 388.903 495.677 393.273 493.979 395.487C493.08 396.66 492.727 398.973 491.738 399.793C488.103 402.81 480.654 401.383 476.405 400.87C460.322 398.928 443.847 401.15 427.692 400.331C423.232 400.105 417.668 398.615 413.243 397.64C407.048 396.274 399.729 396.025 393.369 396.025C379.687 396.025 366.004 396.025 352.322 396.025C341.004 396.025 329.331 395.132 318.058 396.085C310.812 396.697 304.362 399.693 297.122 400.331C291.643 400.814 286.534 401.408 280.963 401.408C274.672 401.408 268.382 401.408 262.091 401.408C256.038 401.408 249.732 398.392 244.576 395.487C240.471 393.174 235.22 393.667 230.717 392.556C226.622 391.546 222.212 390.642 217.978 390.642C207.441 390.642 196.904 390.642 186.368 390.642C172.601 390.642 157.807 389.19 144.26 391.479C132.296 393.502 120.607 396.031 108.639 398.238C89.8525 401.702 71.3603 401.408 52.1412 401.408C44.8793 401.408 3.07427 404.497 3.07427 396.563C3.07427 387.076 2.3044 377.261 4.13582 367.974C4.97927 363.697 7.32045 360.517 7.32045 355.953C7.32045 349.837 8.27435 343.894 11.3307 338.727C14.1167 334.018 12.5082 326.353 14.2205 321.144C15.7086 316.616 16.6516 311.413 16.8743 306.67C17.2907 297.802 18.9974 289.257 18.9974 280.294C18.9974 270.582 19.3241 261.56 16.8743 252.243C14.2352 242.206 11.2092 230.659 10.5051 220.305C10.191 215.686 8.13068 210.841 6.78968 206.489C5.55585 202.485 6.25891 197.56 6.25891 193.39C6.25891 184.192 7.16002 174.596 5.19736 165.639C3.9779 160.074 2.01273 155.61 2.01273 149.729C2.01273 145.343 2.01273 140.957 2.01273 136.571C2.01273 126.244 2.01273 115.917 2.01273 105.59C2.01273 95.2664 1.61998 84.2394 5.19736 74.4891C8.91001 64.3701 8.35401 52.7067 11.0359 42.3714C14.4739 29.122 9.44354 14.9754 9.44354 2" stroke="#1D3D34" stroke-width="3" stroke-linecap="round"/>
</svg>
