<svg width="604" height="604" viewBox="0 0 604 604" fill="none" xmlns="http://www.w3.org/2000/svg">
<path d="M4.78422 26.0969C15.8697 26.0969 26.9822 25.871 37.4988 20.8377C48.2485 15.6928 60.4043 16.549 71.5282 12.4229C88.1356 6.26288 109.735 10.6061 126.981 10.6061C140.257 10.6061 153.534 10.6061 166.811 10.6061C177.065 10.6061 187.112 10.1573 197.205 12.7098C204.235 14.4876 209.548 17.4909 216.849 17.4909C229.966 17.4909 241.789 26.0969 255.055 26.0969C266.501 26.0969 277.947 26.0969 289.394 26.0969C335.823 26.0969 378.482 2 425.202 2C450.339 2 474.135 5.89857 499.061 8.98047C510.526 10.398 522.557 17.4909 533.864 17.4909C544.038 17.4909 552.633 18.6326 562.402 20.9333C571.847 23.1576 580.522 27.8182 590.554 27.8182C597.607 27.8182 595.039 42.3126 595.039 48.8552C595.039 71.3584 595.039 93.8616 595.039 116.365C595.039 143.108 585.295 169.462 585.295 196.497C585.295 212.939 583.057 231.983 585.991 247.942C589.134 265.04 590.789 284.315 592.333 301.491C594.474 325.324 602 347.924 602 372.443C602 397.79 600.501 420.909 595.039 444.542C588.546 472.644 590.863 503.464 590.863 532.515C590.863 545.142 587.52 557.814 584.985 569.999C583.66 576.372 584.563 597.433 579.726 600.599C573.917 604.401 564.132 599.26 558.149 599.26C548.99 599.26 539.983 597.539 531.002 597.539C523.173 597.539 511.596 600.237 504.243 596.774C494.068 591.981 481.631 589.372 470.832 586.829C446.032 580.988 419.756 583.769 394.498 583.769C369.017 583.769 344.418 599.26 319.092 599.26C307.109 599.26 294.669 600.879 283.206 595.818C272.218 590.966 257.134 594.096 245.542 594.096C232.781 594.096 220.02 594.096 207.259 594.096C198.381 594.096 184.812 593.556 176.633 588.933C162.037 580.683 139.354 585.49 123.655 585.49C102.029 585.49 80.9827 599.26 59.6953 599.26C51.7035 599.26 43.7118 599.26 35.72 599.26C32.2528 599.26 28.3121 599.933 24.8925 599.164C20.391 598.153 15.8941 594.829 11.7448 594.096C4.41989 592.803 3.39211 592.549 3.39211 583.195C3.39211 578.51 3.39211 573.824 3.39211 569.139C3.39211 555.943 3.39211 542.747 3.39211 529.551C3.39211 523.814 3.39211 518.076 3.39211 512.339C3.39211 503.366 7.77749 496.586 10.3527 488.72C14.8799 474.891 16.6052 460.72 19.7881 446.455C26.1068 418.135 20.0974 383.981 20.0974 355.422C20.0974 334.138 13.0181 312.702 9.26992 292.311C6.9411 279.642 7.56845 267.052 7.56845 254.062C7.56845 226.012 7.56845 197.963 7.56845 169.914C7.56845 141.063 8.09861 112.121 7.56845 83.2794C7.42989 75.7415 4.26966 67.3346 3.31477 59.6606C2.53395 53.3854 2 47.6307 2 41.2054C2 37.0298 2 32.8543 2 28.6788C2 22.9131 4.99044 24.3757 8.96056 24.3757" stroke="#1D3D34" stroke-width="3" stroke-linecap="round"/>
</svg>
